<?xml version="1.0" standalone="no"?>
<!DOCTYPE svg PUBLIC "-//W3C//DTD SVG 20010904//EN"
 "http://www.w3.org/TR/2001/REC-SVG-20010904/DTD/svg10.dtd">
<svg version="1.0" xmlns="http://www.w3.org/2000/svg"
 width="500.000000pt" height="500.000000pt" viewBox="0 0 500.000000 500.000000"
 preserveAspectRatio="xMidYMid meet">
<g transform="translate(0.000000,500.000000) scale(0.100000,-0.100000)"
fill="red" stroke="none">
<path d="M3070 3370 l0 -130 -130 0 -130 0 0 -85 0 -85 130 0 130 0 0 -130 0
-130 85 0 85 0 0 130 0 130 130 0 130 0 0 85 0 85 -130 0 -130 0 0 130 0 130
-85 0 -85 0 0 -130z"/>
<path d="M1500 2370 l0 -870 870 0 870 0 0 565 0 565 -85 0 -85 0 0 -480 0
-480 -700 0 -700 0 0 700 0 700 480 0 480 0 0 85 0 85 -565 0 -565 0 0 -870z"/>
<path d="M2110 2715 l0 -85 85 0 85 0 0 -260 0 -260 -85 0 -85 0 0 -85 0 -85
260 0 260 0 0 85 0 85 -90 0 -90 0 0 345 0 345 -170 0 -170 0 0 -85z"/>
</g>
</svg>
